{"title":"The November Man 2014 1080p BluRay x264 EXQUiSiTE DUAL","uid":12011468,"size":6961398586,"categoryP":"video","categoryS":"hd___movies","magnet":"?xt=urn:btih:42b37b59d3f939c6a78dc991cd409f09dd145e43&amp;dn=The+November+Man+2014+1080p+BluRay+x264+EXQUiSiTE+DUAL&amp;tr=udp%3A%2F%2Ftracker.openbittorrent.com%3A80&amp;tr=udp%3A%2F%2Fopen.demonii.com%3A1337&amp;tr=udp%3A%2F%2Ftracker.coppersurfer.tk%3A6969&amp;tr=udp%3A%2F%2Fexodus.desync.com%3A6969","seeders":0,"leechers":1,"uploader":"Alemao99","files":3,"time":1434151240,"description":"Brosnan lives a former CIA agent, suspending his retirement in Switzerland for one last mission: protect a key witness, Alice Fournier (Olga Kurylenko). The decision puts in the way of his former student (Luke Bracey) in a deadly game involving the high-ranking official of the CIA and the newly elected president of Russia.\n\nTitle in Brazil: November Man - A Spy Never Dies\nOriginal Title: The November Man\nRelease Year: 2014\nGenre: Action / Thriller / Suspense\nDuration: 108 min\nDirector: Roger Donaldson\nIMDb: http://www.imdb.com/title/tt2402157/\n\nSize: 6:48 GB\nExtension Archive: .MKV\nVideo Quality: Blu-Ray\nVideo codec: H.264 / AVC\nAudio codec: AC3 5.1\nResolution: 1920 x 800\nAudio: Portuguese / English\nLegend: Portuguese\n\n\nVideo\nID                                       : 1\nFormat                                   : AVC\nFormat/Info                              : Advanced Video Codec\nFormat profile                           : &lt;a class=&quot;__cf_email__&quot; href=&quot;/cdn-cgi/l/email-protection&quot; data-cfemail=&quot;8ac2e3ede2cac6bea4bb&quot;&gt;[email&amp;#160;protected]&lt;/a&gt;&lt;script data-cfhash='f9e31' type=&quot;text/javascript&quot;&gt;\n/* &lt;![CDATA[ */!function(){try{var t=&quot;currentScript&quot;in document?document.currentScript:function(){for(var t=document.getElementsByTagName(&quot;script&quot;),e=t.length;e--;)if(t[e].getAttribute(&quot;data-cfhash&quot;))return t[e]}();if(t&amp;&amp;t.previousSibling){var e,r,n,i,c=t.previousSibling,a=c.getAttribute(&quot;data-cfemail&quot;);if(a){for(e=&quot;&quot;,r=parseInt(a.substr(0,2),16),n=2;a.length-n;n+=2)i=parseInt(a.substr(n,2),16)^r,e+=String.fromCharCode(i);e=document.createTextNode(e),c.parentNode.replaceChild(e,c)}t.parentNode.removeChild(t);}}catch(u){}}()/* ]]&gt; */&lt;/script&gt;\nFormat settings, CABAC                   : Yes\nFormat settings, ReFrames                : 5 frames\nMuxing mode                              : Header stripping\nCodec ID                                 : V_MPEG4/ISO/AVC\nDuration                                 : 1h 47mn\nBit rate                                 : 7 533 Kbps\nWidth                                    : 1 920 pixels\nHeight                                   : 800 pixels\nDisplay aspect ratio                     : 2.40:1\nFrame rate                               : 24.000 fps\nColor space                              : YUV\nChroma subsampling                       : 4:2:0\nBit depth                                : 8 bits\nScan type                                : Progressive\nBits/(Pixel*Frame)                       : 0.204\nStream size                              : 5.68 GiB (88%)\nWriting library                          : x264 core 144 r2525 40bb568\nEncoding settings                        : cabac=1 / ref=5 / deblock=1:-1:-1 / analyse=0x3:0x133 / me=umh / subme=7 / psy=1 / psy_rd=1.00:0.15 / mixed_ref=1 / me_range=16 / chroma_me=1 / trellis=1 / 8x8dct=1 / cqm=0 / deadzone=21,11 / fast_pskip=0 / chroma_qp_offset=-3 / threads=18 / lookahead_threads=3 / sliced_threads=0 / nr=0 / decimate=1 / interlaced=0 / bluray_compat=0 / constrained_intra=0 / bframes=3 / b_pyramid=2 / b_adapt=1 / b_bias=0 / direct=3 / weightb=1 / open_gop=0 / weightp=2 / keyint=240 / keyint_min=24 / scenecut=40 / intra_refresh=0 / rc_lookahead=50 / rc=crf / mbtree=1 / crf=20.0 / qcomp=0.60 / qpmin=10 / qpmax=51 / qpstep=4 / ip_ratio=1.40 / aq=1:1.00\nLanguage                                 : English\nDefault                                  : Yes\nForced                                   : No\n\nAudio #1\nID                                       : 2\nFormat                                   : AC-3\nFormat/Info                              : Audio Coding 3\nMode extension                           : CM (complete main)\nFormat settings, Endianness              : Big\nMuxing mode                              : Header stripping\nCodec ID                                 : A_AC3\nDuration                                 : 1h 47mn\nBit rate mode                            : Constant\nBit rate                                 : 448 Kbps\nChannel(s)                               : 6 channels\nChannel positions                        : Front: L C R, Side: L R, LFE\nSampling rate                            : 48.0 KHz\nBit depth                                : 16 bits\nCompression mode                         : Lossy\nDelay relative to video                  : 9s 0ms\nStream size                              : 346 MiB (5%)\nTitle                                    : @RK [BR] Dolby Digital 5.1\nLanguage                                 : Portuguese\nDefault                                  : Yes\nForced                                   : No\n\nAudio #2\nID                                       : 3\nFormat                                   : AC-3\nFormat/Info                              : Audio Coding 3\nMode extension                           : CM (complete main)\nFormat settings, Endianness              : Big\nMuxing mode                              : Header stripping\nCodec ID                                 : A_AC3\nDuration                                 : 1h 47mn\nBit rate mode                            : Constant\nBit rate                                 : 448 Kbps\nChannel(s)                               : 6 channels\nChannel positions                        : Front: L C R, Side: L R, LFE\nSampling rate                            : 48.0 KHz\nBit depth                                : 16 bits\nCompression mode                         : Lossy\nDelay relative to video                  : 9s 0ms\nStream size                              : 346 MiB (5%)\nTitle                                    : @RK [ENG] Dolby Digital 5.1\nLanguage                                 : English\nDefault                                  : No\nForced                                   : No","torrent":{"xt":"urn:btih:42b37b59d3f939c6a78dc991cd409f09dd145e43","amp;dn":"The+November+Man+2014+1080p+BluRay+x264+EXQUiSiTE+DUAL","amp;tr":["udp%3A%2F%2Ftracker.openbittorrent.com%3A80","udp%3A%2F%2Fopen.demonii.com%3A1337","udp%3A%2F%2Ftracker.coppersurfer.tk%3A6969","udp%3A%2F%2Fexodus.desync.com%3A6969"],"infoHash":"42b37b59d3f939c6a78dc991cd409f09dd145e43","infoHashBuffer":{"type":"Buffer","data":[66,179,123,89,211,249,57,198,167,141,201,145,205,64,159,9,221,20,94,67]},"announce":[],"urlList":[]}}